<svg aria-hidden="true" style="position:absolute;width:0;height:0" xmlns="http://www.w3.org/2000/svg" overflow="hidden"><defs><symbol id="icon-view" viewBox="0 0 32 32"><path  d="M27.601 11.655c-6.427-6.426-16.882-6.426-23.309 0L0 15.947l4.399 4.399c3.213 3.213 7.434 4.82 11.655 4.82s8.441-1.607 11.655-4.82l4.293-4.292-4.4-4.398zm-.658 7.926c-6.005 6.004-15.775 6.004-21.78 0l-3.635-3.635 3.528-3.528c6.005-6.004 15.775-6.004 21.78 0l3.635 3.635-3.528 3.528z"/><path  d="M15.444 11.66a3.788 3.788 0 00-3.784 3.784.541.541 0 001.082 0 2.706 2.706 0 012.703-2.703.541.541 0 000-1.082z"/><path  d="M15.985 8.957c-3.875 0-7.027 3.152-7.027 7.027s3.152 7.027 7.027 7.027 7.027-3.152 7.027-7.027a7.035 7.035 0 00-7.027-7.027zm0 12.973c-3.278 0-5.946-2.668-5.946-5.946s2.668-5.946 5.946-5.946 5.946 2.668 5.946 5.946a5.953 5.953 0 01-5.946 5.946z"/></symbol><symbol id="icon-company1" viewBox="0 0 68 32"><path d="M5.333 0h57.333a5.333 5.333 0 015.333 5.333v21.333a5.333 5.333 0 01-5.333 5.333H5.333A5.333 5.333 0 010 26.666V5.333A5.333 5.333 0 015.333 0z"/></symbol><symbol id="icon-facebook" viewBox="0 0 32 32"><path  d="M21.328 5.312h2.923V.224A36.483 36.483 0 0020.143 0h-.156.008c-4.213 0-7.099 2.65-7.099 7.52V12H8.25v5.688h4.646V32h5.699V17.69h4.459l.707-5.688h-5.168V8.08c0-1.643.443-2.768 2.734-2.768z"/></symbol><symbol id="icon-instagram" viewBox="0 0 32 32"><path  d="M31.968 9.408c-.074-1.701-.349-2.869-.744-3.882a7.84 7.84 0 00-1.847-2.837l-.001-.001A7.906 7.906 0 0026.598.861l-.054-.018C25.523.449 24.362.176 22.661.101 20.949.019 20.405 0 16.059 0c-4.344 0-4.888.019-6.595.094-1.701.074-2.869.349-3.88.742a7.847 7.847 0 00-2.839 1.85l-.001.001A7.9 7.9 0 00.919 5.465l-.018.054C.506 6.538.232 7.7.157 9.401c-.082 1.712-.101 2.256-.101 6.602 0 4.344.019 4.888.094 6.595.075 1.701.35 2.869.744 3.882a7.915 7.915 0 001.849 2.837l.001.001c.8.813 1.77 1.443 2.832 1.843 1.019.395 2.182.67 3.882.744 1.707.075 2.251.094 6.595.094 4.346 0 4.89-.019 6.595-.094 1.701-.074 2.869-.349 3.882-.742a8.237 8.237 0 004.664-4.628l.019-.055c.394-1.019.669-2.182.744-3.882.075-1.707.093-2.251.093-6.595s-.006-4.888-.08-6.595zm-2.88 13.066c-.07 1.563-.333 2.406-.552 2.97a5.336 5.336 0 01-3.001 3.024l-.036.013c-.563.219-1.413.482-2.97.55-1.688.075-2.194.094-6.464.094-4.269 0-4.782-.019-6.464-.094-1.563-.069-2.406-.331-2.97-.55a4.953 4.953 0 01-1.836-1.192l-.001-.001a4.978 4.978 0 01-1.184-1.803l-.011-.034c-.218-.563-.48-1.413-.549-2.97-.075-1.688-.094-2.195-.094-6.464 0-4.27.019-4.784.094-6.464.069-1.563.331-2.406.549-2.97a4.897 4.897 0 011.198-1.837l.002-.002a4.972 4.972 0 011.806-1.182l.034-.011c.56-.219 1.411-.48 2.968-.55 1.688-.074 2.194-.093 6.464-.093 4.275 0 4.782.019 6.464.093 1.562.069 2.406.331 2.97.55a4.91 4.91 0 011.837 1.194c.531.52.938 1.144 1.195 1.84.218.56.48 1.411.549 2.968.075 1.688.094 2.194.094 6.464 0 4.269-.019 4.768-.094 6.458z"/><path  d="M16.059 7.782a8.223 8.223 0 00-8.219 8.221v.002a8.222 8.222 0 1016.444 0 8.222 8.222 0 00-8.222-8.222h-.002zm0 13.552a5.333 5.333 0 01.001-10.666h.001a5.334 5.334 0 110 10.668zM26.525 7.458a1.92 1.92 0 01-3.84 0 1.92 1.92 0 013.84 0z"/></symbol><symbol id="icon-linkedin" viewBox="0 0 32 32"><path  d="M31.992 32H32V20.262c0-5.741-1.237-10.163-7.947-10.163-3.227 0-5.392 1.77-6.277 3.45h-.093v-2.914h-6.365v21.363h6.627V21.42c0-2.786.528-5.48 3.978-5.48 3.398 0 3.448 3.179 3.448 5.658V32h6.621zM.528 10.635h6.635V32H.528V10.635zM3.843 0A3.843 3.843 0 000 3.843c0 2.12 1.722 3.878 3.843 3.878 2.12 0 3.842-1.757 3.842-3.878S5.965.002 3.844 0z"/></symbol><symbol id="icon-notebook" viewBox="0 0 49 32"><path fill="var(--color3, #00d5e4)" d="M46.127 30.824H3.296a1.039 1.039 0 01-1.039-1.039V1.04c0-.574.465-1.039 1.039-1.039h42.831c.574 0 1.039.465 1.039 1.039v28.732a1.033 1.033 0 01-1.039 1.053z"/><path fill="var(--color4, #065090)" d="M44.609 29.785H4.814a1.039 1.039 0 01-1.039-1.039V2.093c0-.574.465-1.039 1.039-1.039h39.795c.574 0 1.039.465 1.039 1.039v26.653c.014.561-.465 1.039-1.039 1.039z"/><path fill="var(--color5, #fcfdfd)" d="M15.809 3.952h-5.497v.615h5.497v-.615zM13.812 5.32h-3.501v.615h3.501V5.32zm16.068 0H15.781v.615H29.88V5.32z"/><path fill="var(--color6, #ff6452)" d="M38.632 5.32h-7.385v.615h7.385V5.32z"/><path fill="var(--color7, #00d050)" d="M20.581 6.687h-8.903v.615h8.903v-.615z"/><path fill="var(--color5, #fcfdfd)" d="M36.581 6.687H23.316v.615h13.265v-.615z"/><path fill="var(--color6, #ff6452)" d="M22.838 8.055H10.311v.615h12.527v-.615z"/><path fill="var(--color3, #00d5e4)" d="M32.889 8.055h-8.903v.615h8.903v-.615z"/><path fill="var(--color5, #fcfdfd)" d="M20.581 9.422h-8.903v.615h8.903v-.615zm2.735 1.368H10.311v.615h13.005v-.615zm-4.102 1.367h-8.903v.615h8.903v-.615z"/><path fill="var(--color6, #ff6452)" d="M27.897 13.525H13.046v.615h14.851v-.615z"/><path fill="var(--color5, #fcfdfd)" d="M34.256 13.525h-4.8v.615h4.8v-.615zm6.838 0h-4.8v.615h4.8v-.615zm-20.622 1.367h-6.058v.615h6.058v-.615z"/><path fill="var(--color6, #ff6452)" d="M22.496 16.26h-8.082v.615h8.082v-.615z"/><path fill="var(--color5, #fcfdfd)" d="M34.256 16.26h-8.903v.615h8.903v-.615z"/><path fill="var(--color6, #ff6452)" d="M40 16.26h-3.706v.615H40v-.615z"/><path fill="var(--color5, #fcfdfd)" d="M15.781 17.627h-5.47v.615h5.47v-.615zm3.433 1.368h-8.903v.615h8.903v-.615zm11.35 1.367h-16.15v.615h16.15v-.615z"/><path fill="var(--color3, #00d5e4)" d="M42.188 20.362h-9.997v.615h9.997v-.615z"/><path fill="var(--color5, #fcfdfd)" d="M19.897 21.73h-5.484v.615h5.484v-.615z"/><path fill="var(--color7, #00d050)" d="M26.735 21.73h-5.484v.615h5.484v-.615z"/><path fill="var(--color5, #fcfdfd)" d="M33.573 21.73h-5.484v.615h5.484v-.615zm-14.359 1.367h-8.903v.615h8.903v-.615z"/><path fill="var(--color7, #00d050)" d="M21.949 24.465h-8.903v.615h8.903v-.615zm10.598 0h-8.903v.615h8.903v-.615z"/><path fill="var(--color5, #fcfdfd)" d="M28.444 27.2h-4.991v.615h4.991V27.2zm-2.188-1.368h-13.21v.615h13.21v-.615z"/><path fill="var(--color8, #5e94c1)" d="M6.879 3.952h-.615v.615h.615v-.615zm0 1.368h-.615v.615h.615V5.32zm0 1.367h-.615v.615h.615v-.615zm0 1.368h-.615v.615h.615v-.615zm0 1.367h-.615v.615h.615v-.615zm0 1.368h-.615v.615h.615v-.615zm0 1.367h-.615v.615h.615v-.615zm0 1.368h-.615v.615h.615v-.615zm0 1.367h-.615v.615h.615v-.615zm0 1.368h-.615v.615h.615v-.615zm0 1.367h-.615v.615h.615v-.615zm0 1.368h-.615v.615h.615v-.615zm0 1.367h-.615v.615h.615v-.615zm0 1.368h-.615v.615h.615v-.615zm0 1.367h-.615v.615h.615v-.615zm0 1.368h-.615v.615h.615v-.615zm0 1.367h-.615v.615h.615v-.615zm0 1.368h-.615v.615h.615V27.2z"/><path fill="var(--color5, #fcfdfd)" d="M19.651 27.2h-6.605v.615h6.605V27.2zm19.282.602l-2.598-1.108v-.451l2.598-1.108v.479l-2.065.848 2.065.848v.492zm1.833-3.323l-1.135 3.925h-.383l1.135-3.925h.383zm2.899 2.215l-2.598 1.108v-.479l2.065-.848-2.065-.848v-.479l2.598 1.108v.438z"/><path fill="var(--color9, #00bbd3)" d="M46.085 31.959H2.735A2.743 2.743 0 010 29.224h48.821a2.734 2.734 0 01-2.735 2.735z"/><path fill="var(--color1, #fff)" opacity=".01" d="M17.696 29.785L27.898 1.04h-3.87L13.826 29.785h3.87zm-12.869 0h1.819L16.848 1.04H4.827c-.574 0-1.039.465-1.039 1.039v26.653a1.042 1.042 0 001.039 1.053zm34.503 0h5.292c.574 0 1.039-.465 1.039-1.039V11.953l-6.332 17.832z"/><path fill="var(--color1, #fff)" opacity=".1" d="M25.203 29.785H32.3L42.502 1.04h-7.097L25.203 29.785z"/><path fill="var(--color10, #15d7e2)" d="M48.451 30.591c.232-.397.369-.875.369-1.368H-.001c0 .492.137.971.369 1.368H48.45z"/></symbol><symbol id="icon-project" viewBox="0 0 32 32"><path  d="M31.467 0h-24-.001a.533.533 0 00-.533.533v8H8V1.067h22.933v29.342a.526.526 0 01-.489.524h-.002c-.046 0-.092-.004-.138-.004-.095-.003-.189-.005-.282-.015-.008 0-.015 0-.024-.003a3.744 3.744 0 01-3.308-3.289l-.002-.017c0-.008-.003-.016-.003-.023a3.668 3.668 0 01-.019-.377v-1.071a.533.533 0 00-.533-.533H7.999v-9.6H6.932v9.6H2.666h-.001a.533.533 0 00-.533.533v1.067a4.805 4.805 0 004.8 4.8h23.52a1.589 1.589 0 001.547-1.588V30.4v.001V.534a.533.533 0 00-.533-.533zM6.933 30.933A3.737 3.737 0 013.2 27.2v-.533h22.4v.533c.001.176.011.352.03.526.005.047.014.092.02.138.018.129.038.257.067.384l.033.132c.05.2.102.362.162.52l-.011-.034c.049.132.103.262.164.389.013.026.024.053.037.077.067.136.141.267.22.394.011.017.02.035.031.054.087.136.181.268.282.394l.017.023c.219.275.459.517.722.731l.009.007-20.449-.002z"/><path fill="var(--color1, #fff)" d="M17.6 14.933h.001c.147 0 .28-.06.377-.156l2.132-2.133a.533.533 0 000-.754l-2.133-2.134A.533.533 0 0017.6 9.6H2.668a2.668 2.668 0 00-.003 5.334H17.599zm-.138-4.183l1.517 1.517-1.517 1.517-.38-1.517.38-1.517zm-13.195-.083h12.117l-.267 1.066H5.333V12.8h10.784l.267 1.067H4.267v-3.2zm-3.2 1.6a1.6 1.6 0 011.6-1.6H3.2v3.2h-.533a1.6 1.6 0 01-1.6-1.6zm11.2 10.666h16a.533.533 0 00.533-.533v-16-.001a.533.533 0 00-.911-.376l-16 16a.532.532 0 00.376.911h.001zM27.733 7.688v1.379h-1.066v1.066h1.066V11.2h-1.066v1.067h1.066v1.066h-1.066V14.4h1.066v1.067h-1.066v1.066h1.066V17.6h-1.066v1.067h1.066v1.066h-1.066V20.8h1.066v1.067h-1.066V20.8H25.6v1.067h-1.067V20.8h-1.066v1.067H22.4V20.8h-1.067v1.067h-1.066V20.8H19.2v1.067h-1.067V20.8h-1.066v1.067H16V20.8h-1.067v1.067h-1.379L27.733 7.688z"/><path fill="var(--color1, #fff)" d="M19.992 19.733h5.075a.533.533 0 00.533-.533v-5.075a.533.533 0 00-.911-.376l-5.075 5.075a.533.533 0 00.377.91h.001zm4.541-4.32v3.254H21.28l3.253-3.254zm0-12.213H13.867v1.067h10.666V3.2zm1.6 2.133H12.267V6.4h13.866V5.333zm-13.866 11.2h-3.2V17.6h3.2v-1.067zM11.2 18.667H9.067v1.066H11.2v-1.066z"/></symbol><symbol id="icon-vk" viewBox="0 0 35 32"><path  d="M34.814 23.36a2.217 2.217 0 00-.123-.216l.005.008c-.608-1-1.768-2.228-3.48-3.682l-.037-.034-.018-.016-.018-.017h-.018c-.777-.678-1.27-1.134-1.476-1.366-.377-.445-.462-.894-.255-1.35.146-.344.693-1.071 1.64-2.182.247-.285.634-.746 1.018-1.21l.166-.207c2.102-2.555 3.014-4.188 2.734-4.899l-.109-.166c-.073-.1-.262-.192-.565-.275s-.693-.097-1.166-.042l-5.248.033c-.086-.027-.206-.024-.365.009l-.237.05-.091.042-.073.05a.777.777 0 00-.199.174l-.001.001c-.073.083-.134.18-.182.291a25.955 25.955 0 01-2.014 3.856l.063-.107a33.897 33.897 0 01-1.306 1.886l.067-.094c-.376.504-.692.877-.947 1.115s-.486.43-.693.575c-.206.144-.364.206-.474.183a10.686 10.686 0 01-.409-.086l.1.019a1.155 1.155 0 01-.407-.403l-.003-.005a1.681 1.681 0 01-.209-.642l-.001-.008a6.346 6.346 0 01-.064-.66v-.014c-.006-.189-.002-.456.01-.8s.018-.578.018-.7c0-.422.009-.88.027-1.374s.033-.886.046-1.174c.012-.289.018-.594.018-.917s-.022-.574-.064-.758a2.413 2.413 0 00-.198-.548l.006.014a.935.935 0 00-.369-.398l-.004-.002a2.161 2.161 0 00-.596-.222l-.015-.003c-.644-.134-1.464-.206-2.46-.216-2.26-.022-3.712.11-4.355.4a2.429 2.429 0 00-.693.499c-.218.245-.249.378-.091.4.729.099 1.245.338 1.549.716l.11.2c.085.144.17.4.255.766s.14.772.164 1.216c.061.811.061 1.506 0 2.083a23.206 23.206 0 01-.19 1.481l.018-.131c-.055.322-.137.583-.246.782s-.182.322-.218.366a.297.297 0 01-.09.083l-.001.001c-.158.055-.322.083-.492.083s-.377-.078-.62-.234a4.271 4.271 0 01-.754-.639l-.002-.002c-.262-.272-.556-.653-.884-1.141a18.22 18.22 0 01-.969-1.627l-.051-.105-.292-.483a24.226 24.226 0 01-.641-1.14l-.106-.217a21.464 21.464 0 01-.775-1.566L7.4 8.505a1.128 1.128 0 00-.432-.531l-.004-.003-.091-.05a1.242 1.242 0 00-.283-.139l-.009-.003a1.982 1.982 0 00-.407-.108l-.012-.002-4.994.034c-.51 0-.856.106-1.038.317l-.073.1c-.037.056-.055.144-.055.266s.037.272.11.45a51.355 51.355 0 002.512 4.775l-.134-.243c.856 1.455 1.601 2.627 2.232 3.515s1.276 1.728 1.932 2.516c.656.789 1.09 1.294 1.303 1.516s.379.389.501.5l.456.4c.291.266.72.586 1.285.958.511.341 1.124.706 1.756 1.042l.121.058c.686.36 1.485.655 2.397.882.91.228 1.798.32 2.66.275h2.096c.425-.034.747-.155.966-.366l.072-.083a1.03 1.03 0 00.135-.301l.002-.007c.043-.139.064-.292.064-.458a5.008 5.008 0 01.125-1.326l-.007.034c.09-.383.194-.672.31-.866s.246-.358.392-.491c.145-.133.249-.214.31-.242s.109-.046.146-.058c.291-.088.634-.002 1.03.258s.766.584 1.112.966c.346.384.762.814 1.248 1.291s.911.833 1.275 1.066l.365.2c.243.134.559.256.948.366.388.112.728.139 1.02.084l4.665-.067c.462 0 .821-.07 1.075-.208.256-.139.407-.292.456-.458s.051-.355.009-.566a1.98 1.98 0 00-.128-.442z"/></symbol></defs></svg>